<svg width="35" height="40" viewBox="0 0 35 40" fill="none" xmlns="http://www.w3.org/2000/svg">
<path d="M3.75 2.5L31.25 2.5C33.3203 2.5 35 4.17969 35 6.25L35 33.75C35 35.8203 33.3203 37.5 31.25 37.5L3.75 37.5C1.67969 37.5 0 35.8203 0 33.75L0 6.25C0 4.17969 1.67969 2.5 3.75 2.5ZM13.3359 32.4766C13.9922 32.5938 14.2344 32.1875 14.2344 31.8516C14.2344 31.4297 14.2187 29.2734 14.2187 27.5312C14.2187 26.3125 14.625 25.5391 15.1016 25.1328C12.2109 24.8125 9.16406 24.4141 9.16406 19.4219C9.16406 18 9.67187 17.2891 10.5 16.375C10.3672 16.0391 9.92188 14.6562 10.6328 12.8594C11.7188 12.5234 14.2031 14.2578 14.2031 14.2578C15.2344 13.9687 16.3516 13.8203 17.4531 13.8203C18.5547 13.8203 19.6719 13.9687 20.7031 14.2578C20.7031 14.2578 23.1875 12.5234 24.2734 12.8594C24.9844 14.6484 24.5469 16.0312 24.4062 16.375C25.2344 17.2891 25.625 18 25.625 19.4219C25.625 24.3906 22.7109 24.8125 19.8203 25.1328C20.1953 25.4688 20.5312 26.0469 20.6484 26.875C21.3906 27.2109 23.2891 27.7891 24.4219 25.7891C25.1328 24.5547 26.4141 24.4531 26.4141 24.4531C27.6797 24.4375 26.5 25.25 26.5 25.25C25.6562 25.6406 25.0625 27.1406 25.0625 27.1406C24.3047 29.4609 20.6797 28.6797 20.6797 28.6797C20.6797 29.7656 20.6641 31.5313 20.6641 31.8516C20.6641 32.1875 20.8984 32.5938 21.5625 32.4766C26.7187 30.75 30.3281 25.8438 30.3281 20.1094C30.3281 12.9375 24.8438 7.49219 17.6719 7.49219C10.5 7.49219 4.6875 12.9375 4.6875 20.1094C4.67969 25.8437 8.17969 30.7578 13.3359 32.4766ZM21 27.7031C21.1484 27.7344 21.2891 27.6719 21.3047 27.5703C21.3203 27.4531 21.2187 27.3516 21.0703 27.3203C20.9219 27.3047 20.7812 27.3672 20.7656 27.4688C20.7422 27.5703 20.8437 27.6719 21 27.7031ZM21.7422 27.6328C21.7422 27.7344 21.8594 27.8203 22.0156 27.8203C22.1875 27.8359 22.3047 27.75 22.3047 27.6328C22.3047 27.5313 22.1875 27.4453 22.0312 27.4453C21.8828 27.4297 21.7422 27.5156 21.7422 27.6328ZM22.8125 27.5469C22.8437 27.6484 23 27.6953 23.1328 27.6484C23.2812 27.6172 23.3828 27.5 23.3516 27.3984C23.3203 27.2969 23.1641 27.25 23.0312 27.2812C22.875 27.3281 22.7734 27.4453 22.8125 27.5469ZM23.7734 27.125C23.8437 27.2109 23.9922 27.1953 24.1094 27.0781C24.2266 26.9766 24.2578 26.8281 24.1797 26.7578C24.1094 26.6719 23.9609 26.6875 23.8437 26.8047C23.7422 26.9062 23.7031 27.0625 23.7734 27.125ZM24.4844 26.4141C24.5547 26.4609 24.6875 26.4141 24.7734 26.2969C24.8594 26.1797 24.8594 26.0469 24.7734 25.9922C24.6875 25.9219 24.5547 25.9766 24.4844 26.0938C24.3984 26.2109 24.3984 26.3516 24.4844 26.4141ZM24.9922 25.6562C25.0625 25.7266 25.1797 25.6875 25.2656 25.6094C25.3516 25.5078 25.3672 25.3906 25.2969 25.3359C25.2266 25.2656 25.1094 25.3047 25.0234 25.3828C24.9375 25.4844 24.9219 25.6016 24.9922 25.6562ZM25.5156 25.0781C25.5469 25.1484 25.6484 25.1641 25.7344 25.1094C25.8359 25.0625 25.8828 24.9766 25.8516 24.9062C25.8203 24.8594 25.7344 24.8359 25.6328 24.875C25.5312 24.9297 25.4844 25.0156 25.5156 25.0781Z" fill="#581908"/>
</svg>
